G04 #@! TF.GenerationSoftware,KiCad,Pcbnew,9.0.5*
G04 #@! TF.CreationDate,2025-10-21T08:36:28+08:00*
G04 #@! TF.ProjectId,sac_board,7361635f-626f-4617-9264-2e6b69636164,rev?*
G04 #@! TF.SameCoordinates,Original*
G04 #@! TF.FileFunction,Paste,Top*
G04 #@! TF.FilePolarity,Positive*
%FSLAX46Y46*%
G04 Gerber Fmt 4.6, Leading zero omitted, Abs format (unit mm)*
G04 Created by KiCad (PCBNEW 9.0.5) date 2025-10-21 08:36:28*
%MOMM*%
%LPD*%
G01*
G04 APERTURE LIST*
G04 Aperture macros list*
%AMRoundRect*
0 Rectangle with rounded corners*
0 $1 Rounding radius*
0 $2 $3 $4 $5 $6 $7 $8 $9 X,Y pos of 4 corners*
0 Add a 4 corners polygon primitive as box body*
4,1,4,$2,$3,$4,$5,$6,$7,$8,$9,$2,$3,0*
0 Add four circle primitives for the rounded corners*
1,1,$1+$1,$2,$3*
1,1,$1+$1,$4,$5*
1,1,$1+$1,$6,$7*
1,1,$1+$1,$8,$9*
0 Add four rect primitives between the rounded corners*
20,1,$1+$1,$2,$3,$4,$5,0*
20,1,$1+$1,$4,$5,$6,$7,0*
20,1,$1+$1,$6,$7,$8,$9,0*
20,1,$1+$1,$8,$9,$2,$3,0*%
G04 Aperture macros list end*
%ADD10RoundRect,0.250000X0.475000X-0.250000X0.475000X0.250000X-0.475000X0.250000X-0.475000X-0.250000X0*%
%ADD11RoundRect,0.250000X0.450000X-0.262500X0.450000X0.262500X-0.450000X0.262500X-0.450000X-0.262500X0*%
%ADD12RoundRect,0.250000X-0.450000X0.262500X-0.450000X-0.262500X0.450000X-0.262500X0.450000X0.262500X0*%
%ADD13RoundRect,0.250000X-0.475000X0.250000X-0.475000X-0.250000X0.475000X-0.250000X0.475000X0.250000X0*%
%ADD14RoundRect,0.243750X0.456250X-0.243750X0.456250X0.243750X-0.456250X0.243750X-0.456250X-0.243750X0*%
%ADD15RoundRect,0.250000X0.262500X0.450000X-0.262500X0.450000X-0.262500X-0.450000X0.262500X-0.450000X0*%
%ADD16RoundRect,0.250000X0.250000X0.475000X-0.250000X0.475000X-0.250000X-0.475000X0.250000X-0.475000X0*%
%ADD17RoundRect,0.250000X-0.250000X-0.475000X0.250000X-0.475000X0.250000X0.475000X-0.250000X0.475000X0*%
%ADD18RoundRect,0.250000X-0.262500X-0.450000X0.262500X-0.450000X0.262500X0.450000X-0.262500X0.450000X0*%
%ADD19RoundRect,0.218750X-0.381250X0.218750X-0.381250X-0.218750X0.381250X-0.218750X0.381250X0.218750X0*%
%ADD20RoundRect,0.250000X0.250000X-1.150000X0.250000X1.150000X-0.250000X1.150000X-0.250000X-1.150000X0*%
%ADD21RoundRect,0.150000X0.512500X0.150000X-0.512500X0.150000X-0.512500X-0.150000X0.512500X-0.150000X0*%
%ADD22RoundRect,0.075000X-0.075000X0.725000X-0.075000X-0.725000X0.075000X-0.725000X0.075000X0.725000X0*%
%ADD23RoundRect,0.075000X-0.725000X0.075000X-0.725000X-0.075000X0.725000X-0.075000X0.725000X0.075000X0*%
%ADD24RoundRect,0.250000X-0.250000X1.150000X-0.250000X-1.150000X0.250000X-1.150000X0.250000X1.150000X0*%
%ADD25R,0.700000X1.200000*%
%ADD26R,1.000000X0.800000*%
%ADD27R,1.000000X1.200000*%
%ADD28R,1.000000X2.800000*%
%ADD29R,1.300000X1.900000*%
%ADD30RoundRect,0.137500X0.662500X0.137500X-0.662500X0.137500X-0.662500X-0.137500X0.662500X-0.137500X0*%
%ADD31RoundRect,0.250000X-0.750000X-0.950000X0.750000X-0.950000X0.750000X0.950000X-0.750000X0.950000X0*%
%ADD32RoundRect,0.243750X0.243750X0.456250X-0.243750X0.456250X-0.243750X-0.456250X0.243750X-0.456250X0*%
%ADD33R,1.800000X1.000000*%
%ADD34R,0.500000X2.500000*%
%ADD35R,2.000000X2.500000*%
%ADD36RoundRect,0.250000X0.950000X-0.750000X0.950000X0.750000X-0.950000X0.750000X-0.950000X-0.750000X0*%
%ADD37RoundRect,0.250000X0.255000X-0.255000X0.255000X0.255000X-0.255000X0.255000X-0.255000X-0.255000X0*%
%ADD38RoundRect,0.062500X0.062500X-0.375000X0.062500X0.375000X-0.062500X0.375000X-0.062500X-0.375000X0*%
%ADD39RoundRect,0.062500X0.375000X-0.062500X0.375000X0.062500X-0.375000X0.062500X-0.375000X-0.062500X0*%
%ADD40RoundRect,0.250000X-0.925000X-1.500000X0.925000X-1.500000X0.925000X1.500000X-0.925000X1.500000X0*%
G04 APERTURE END LIST*
D10*
X98700000Y-54775000D03*
X98700000Y-52875000D03*
D11*
X83000000Y-67512500D03*
X83000000Y-65687500D03*
D12*
X54600000Y-86247500D03*
X54600000Y-88072500D03*
D13*
X143900000Y-81350000D03*
X143900000Y-83250000D03*
D11*
X70800000Y-54607500D03*
X70800000Y-52782500D03*
D12*
X107200000Y-47887500D03*
X107200000Y-49712500D03*
D14*
X80800000Y-60137500D03*
X80800000Y-58262500D03*
D11*
X139500000Y-92412500D03*
X139500000Y-90587500D03*
X66000000Y-88212500D03*
X66000000Y-86387500D03*
X127250000Y-92412500D03*
X127250000Y-90587500D03*
D10*
X102800000Y-66150000D03*
X102800000Y-64250000D03*
D15*
X66672500Y-65000000D03*
X64847500Y-65000000D03*
X142725000Y-50700000D03*
X140900000Y-50700000D03*
D16*
X86150000Y-77200000D03*
X84250000Y-77200000D03*
D10*
X75295000Y-54625000D03*
X75295000Y-52725000D03*
D14*
X104200000Y-59887500D03*
X104200000Y-58012500D03*
D10*
X68600000Y-54625000D03*
X68600000Y-52725000D03*
D11*
X86430000Y-45575000D03*
X86430000Y-43750000D03*
D12*
X117612500Y-70187500D03*
X117612500Y-72012500D03*
D10*
X73045000Y-54625000D03*
X73045000Y-52725000D03*
D11*
X80800000Y-67512500D03*
X80800000Y-65687500D03*
D10*
X66000000Y-91850000D03*
X66000000Y-89950000D03*
D13*
X118000000Y-50650000D03*
X118000000Y-52550000D03*
D17*
X97250000Y-64800000D03*
X99150000Y-64800000D03*
X64850000Y-62600000D03*
X66750000Y-62600000D03*
D11*
X104200000Y-56112500D03*
X104200000Y-54287500D03*
D10*
X96425000Y-54775000D03*
X96425000Y-52875000D03*
X77600000Y-54625000D03*
X77600000Y-52725000D03*
D11*
X99150000Y-45575000D03*
X99150000Y-43750000D03*
X125000000Y-92412500D03*
X125000000Y-90587500D03*
D18*
X76287500Y-82200000D03*
X78112500Y-82200000D03*
D12*
X119912500Y-70187500D03*
X119912500Y-72012500D03*
D10*
X105200000Y-66150000D03*
X105200000Y-64250000D03*
D15*
X46512500Y-82400000D03*
X44687500Y-82400000D03*
D11*
X115600000Y-66112500D03*
X115600000Y-64287500D03*
D18*
X92887500Y-70400000D03*
X94712500Y-70400000D03*
D14*
X99200000Y-49337500D03*
X99200000Y-47462500D03*
D19*
X107400000Y-64137500D03*
X107400000Y-66262500D03*
D14*
X94200000Y-49337500D03*
X94200000Y-47462500D03*
D15*
X142725000Y-55500000D03*
X140900000Y-55500000D03*
D20*
X106950000Y-58400000D03*
X106950000Y-52600000D03*
X110950000Y-58400000D03*
X110950000Y-52600000D03*
D21*
X67127500Y-60235000D03*
X67127500Y-59285000D03*
X67127500Y-58335000D03*
X64852500Y-58335000D03*
X64852500Y-59285000D03*
X64852500Y-60235000D03*
D15*
X73012500Y-64700000D03*
X71187500Y-64700000D03*
D11*
X131750000Y-92412500D03*
X131750000Y-90587500D03*
D10*
X91800000Y-54775000D03*
X91800000Y-52875000D03*
X66000000Y-104075000D03*
X66000000Y-102175000D03*
D11*
X85700000Y-60012500D03*
X85700000Y-58187500D03*
X80800000Y-56312500D03*
X80800000Y-54487500D03*
D15*
X142725000Y-48300000D03*
X140900000Y-48300000D03*
X68512500Y-79800000D03*
X66687500Y-79800000D03*
D22*
X114400000Y-72525000D03*
X113900000Y-72525000D03*
X113400000Y-72525000D03*
X112900000Y-72525000D03*
X112400000Y-72525000D03*
X111900000Y-72525000D03*
X111400000Y-72525000D03*
X110900000Y-72525000D03*
X110400000Y-72525000D03*
X109900000Y-72525000D03*
X109400000Y-72525000D03*
X108900000Y-72525000D03*
X108400000Y-72525000D03*
X107900000Y-72525000D03*
X107400000Y-72525000D03*
X106900000Y-72525000D03*
X106400000Y-72525000D03*
X105900000Y-72525000D03*
X105400000Y-72525000D03*
X104900000Y-72525000D03*
X104400000Y-72525000D03*
X103900000Y-72525000D03*
X103400000Y-72525000D03*
X102900000Y-72525000D03*
X102400000Y-72525000D03*
D23*
X100725000Y-74200000D03*
X100725000Y-74700000D03*
X100725000Y-75200000D03*
X100725000Y-75700000D03*
X100725000Y-76200000D03*
X100725000Y-76700000D03*
X100725000Y-77200000D03*
X100725000Y-77700000D03*
X100725000Y-78200000D03*
X100725000Y-78700000D03*
X100725000Y-79200000D03*
X100725000Y-79700000D03*
X100725000Y-80200000D03*
X100725000Y-80700000D03*
X100725000Y-81200000D03*
X100725000Y-81700000D03*
X100725000Y-82200000D03*
X100725000Y-82700000D03*
X100725000Y-83200000D03*
X100725000Y-83700000D03*
X100725000Y-84200000D03*
X100725000Y-84700000D03*
X100725000Y-85200000D03*
X100725000Y-85700000D03*
X100725000Y-86200000D03*
D22*
X102400000Y-87875000D03*
X102900000Y-87875000D03*
X103400000Y-87875000D03*
X103900000Y-87875000D03*
X104400000Y-87875000D03*
X104900000Y-87875000D03*
X105400000Y-87875000D03*
X105900000Y-87875000D03*
X106400000Y-87875000D03*
X106900000Y-87875000D03*
X107400000Y-87875000D03*
X107900000Y-87875000D03*
X108400000Y-87875000D03*
X108900000Y-87875000D03*
X109400000Y-87875000D03*
X109900000Y-87875000D03*
X110400000Y-87875000D03*
X110900000Y-87875000D03*
X111400000Y-87875000D03*
X111900000Y-87875000D03*
X112400000Y-87875000D03*
X112900000Y-87875000D03*
X113400000Y-87875000D03*
X113900000Y-87875000D03*
X114400000Y-87875000D03*
D23*
X116075000Y-86200000D03*
X116075000Y-85700000D03*
X116075000Y-85200000D03*
X116075000Y-84700000D03*
X116075000Y-84200000D03*
X116075000Y-83700000D03*
X116075000Y-83200000D03*
X116075000Y-82700000D03*
X116075000Y-82200000D03*
X116075000Y-81700000D03*
X116075000Y-81200000D03*
X116075000Y-80700000D03*
X116075000Y-80200000D03*
X116075000Y-79700000D03*
X116075000Y-79200000D03*
X116075000Y-78700000D03*
X116075000Y-78200000D03*
X116075000Y-77700000D03*
X116075000Y-77200000D03*
X116075000Y-76700000D03*
X116075000Y-76200000D03*
X116075000Y-75700000D03*
X116075000Y-75200000D03*
X116075000Y-74700000D03*
X116075000Y-74200000D03*
D15*
X73912500Y-82200000D03*
X72087500Y-82200000D03*
D24*
X51500000Y-99250000D03*
X51500000Y-105050000D03*
X47500000Y-99250000D03*
X47500000Y-105050000D03*
D15*
X141850000Y-68750000D03*
X140025000Y-68750000D03*
D10*
X66300000Y-54625000D03*
X66300000Y-52725000D03*
D17*
X84250000Y-79400000D03*
X86150000Y-79400000D03*
X74450000Y-79200000D03*
X76350000Y-79200000D03*
D10*
X101000000Y-54775000D03*
X101000000Y-52875000D03*
D15*
X141850000Y-71250000D03*
X140025000Y-71250000D03*
D12*
X117500000Y-97387500D03*
X117500000Y-99212500D03*
D25*
X136245000Y-95310000D03*
X135145000Y-95310000D03*
X134045000Y-95310000D03*
X132945000Y-95310000D03*
X131845000Y-95310000D03*
X130745000Y-95310000D03*
X129645000Y-95310000D03*
X128545000Y-95310000D03*
X127595000Y-95310000D03*
D26*
X126645000Y-105810000D03*
D27*
X126645000Y-99610000D03*
D28*
X126645000Y-109960000D03*
D27*
X137795000Y-95310000D03*
D29*
X140145000Y-110410000D03*
D16*
X122375000Y-64103125D03*
X120475000Y-64103125D03*
D17*
X84250000Y-81600000D03*
X86150000Y-81600000D03*
D10*
X64000000Y-77050000D03*
X64000000Y-75150000D03*
D17*
X74950000Y-64700000D03*
X76850000Y-64700000D03*
D10*
X134250000Y-92450000D03*
X134250000Y-90550000D03*
D30*
X138500000Y-82945000D03*
X138500000Y-81675000D03*
X138500000Y-80405000D03*
X138500000Y-79135000D03*
X138500000Y-77865000D03*
X138500000Y-76595000D03*
X138500000Y-75325000D03*
X138500000Y-74055000D03*
X132000000Y-74055000D03*
X132000000Y-75325000D03*
X132000000Y-76595000D03*
X132000000Y-77865000D03*
X132000000Y-79135000D03*
X132000000Y-80405000D03*
X132000000Y-81675000D03*
X132000000Y-82945000D03*
D13*
X98300000Y-87050000D03*
X98300000Y-88950000D03*
D11*
X66000000Y-100287500D03*
X66000000Y-98462500D03*
D16*
X122350000Y-66400000D03*
X120450000Y-66400000D03*
D14*
X91550000Y-49337500D03*
X91550000Y-47462500D03*
X96650000Y-49337500D03*
X96650000Y-47462500D03*
D16*
X142850000Y-75200000D03*
X140950000Y-75200000D03*
D17*
X48850000Y-82400000D03*
X50750000Y-82400000D03*
D10*
X141600000Y-83250000D03*
X141600000Y-81350000D03*
D11*
X54400000Y-100162500D03*
X54400000Y-98337500D03*
X83850000Y-45575000D03*
X83850000Y-43750000D03*
D10*
X141600000Y-79350000D03*
X141600000Y-77450000D03*
D11*
X81350000Y-45575000D03*
X81350000Y-43750000D03*
D31*
X75150000Y-85600000D03*
X78850000Y-85600000D03*
D16*
X68550000Y-73000000D03*
X66650000Y-73000000D03*
D24*
X63000000Y-86850000D03*
X63000000Y-92650000D03*
X59000000Y-86850000D03*
X59000000Y-92650000D03*
D11*
X85200000Y-67512500D03*
X85200000Y-65687500D03*
D10*
X94100000Y-54775000D03*
X94100000Y-52875000D03*
D32*
X145625000Y-71250000D03*
X143750000Y-71250000D03*
D10*
X64000000Y-73350000D03*
X64000000Y-71450000D03*
D33*
X118200000Y-66650000D03*
X118200000Y-64150000D03*
D15*
X141850000Y-66250000D03*
X140025000Y-66250000D03*
D13*
X115600000Y-50650000D03*
X115600000Y-52550000D03*
D18*
X115575000Y-61600000D03*
X117400000Y-61600000D03*
D15*
X90300000Y-65400000D03*
X88475000Y-65400000D03*
D34*
X114650000Y-103125000D03*
X115450000Y-103125000D03*
X116250000Y-103125000D03*
X117050000Y-103125000D03*
X117850000Y-103125000D03*
D35*
X111850000Y-103125000D03*
X111850000Y-108625000D03*
X120650000Y-103125000D03*
X120650000Y-108625000D03*
D10*
X54600000Y-91980000D03*
X54600000Y-90080000D03*
D15*
X46412500Y-62500000D03*
X44587500Y-62500000D03*
D36*
X116700000Y-58750000D03*
X116700000Y-55050000D03*
D15*
X68482500Y-70800000D03*
X66657500Y-70800000D03*
D11*
X91510000Y-45575000D03*
X91510000Y-43750000D03*
D37*
X80125000Y-74625000D03*
X81375000Y-74625000D03*
X80125000Y-73375000D03*
X81375000Y-73375000D03*
D38*
X79500000Y-75937500D03*
X80000000Y-75937500D03*
X80500000Y-75937500D03*
X81000000Y-75937500D03*
X81500000Y-75937500D03*
X82000000Y-75937500D03*
D39*
X82687500Y-75250000D03*
X82687500Y-74750000D03*
X82687500Y-74250000D03*
X82687500Y-73750000D03*
X82687500Y-73250000D03*
X82687500Y-72750000D03*
D38*
X82000000Y-72062500D03*
X81500000Y-72062500D03*
X81000000Y-72062500D03*
X80500000Y-72062500D03*
X80000000Y-72062500D03*
X79500000Y-72062500D03*
D39*
X78812500Y-72750000D03*
X78812500Y-73250000D03*
X78812500Y-73750000D03*
X78812500Y-74250000D03*
X78812500Y-74750000D03*
X78812500Y-75250000D03*
D17*
X74650000Y-71250000D03*
X76550000Y-71250000D03*
D15*
X95037500Y-64800000D03*
X93212500Y-64800000D03*
D11*
X88970000Y-45575000D03*
X88970000Y-43750000D03*
D10*
X81600000Y-86150000D03*
X81600000Y-84250000D03*
D32*
X145625000Y-66250000D03*
X143750000Y-66250000D03*
D15*
X141850000Y-63750000D03*
X140025000Y-63750000D03*
D14*
X81400000Y-49337500D03*
X81400000Y-47462500D03*
D10*
X54400000Y-104100000D03*
X54400000Y-102200000D03*
D15*
X68500000Y-84200000D03*
X66675000Y-84200000D03*
D11*
X96600000Y-45575000D03*
X96600000Y-43750000D03*
X62500000Y-60212500D03*
X62500000Y-58387500D03*
D10*
X72400000Y-86550000D03*
X72400000Y-84650000D03*
D17*
X88450000Y-63000000D03*
X90350000Y-63000000D03*
D15*
X68512500Y-75400000D03*
X66687500Y-75400000D03*
D24*
X63000000Y-99100000D03*
X63000000Y-104900000D03*
X59000000Y-99100000D03*
X59000000Y-104900000D03*
D18*
X74537500Y-68000000D03*
X76362500Y-68000000D03*
X140887500Y-58000000D03*
X142712500Y-58000000D03*
D32*
X145625000Y-63750000D03*
X143750000Y-63750000D03*
D15*
X88512500Y-73400000D03*
X86687500Y-73400000D03*
D11*
X122112500Y-72012500D03*
X122112500Y-70187500D03*
D24*
X51500000Y-86850000D03*
X51500000Y-92650000D03*
X47500000Y-86850000D03*
X47500000Y-92650000D03*
D40*
X71020000Y-59750000D03*
X77070000Y-59750000D03*
D13*
X129600000Y-81750000D03*
X129600000Y-83650000D03*
D16*
X68537500Y-82000000D03*
X66637500Y-82000000D03*
D17*
X114812500Y-90710000D03*
X116712500Y-90710000D03*
D11*
X94200000Y-45512500D03*
X94200000Y-43687500D03*
D15*
X76312500Y-77000000D03*
X74487500Y-77000000D03*
D40*
X93350000Y-59600000D03*
X99400000Y-59600000D03*
D32*
X145625000Y-68750000D03*
X143750000Y-68750000D03*
D16*
X68550000Y-68400000D03*
X66650000Y-68400000D03*
D10*
X111200000Y-49750000D03*
X111200000Y-47850000D03*
D14*
X86500000Y-49337500D03*
X86500000Y-47462500D03*
D10*
X89500000Y-54775000D03*
X89500000Y-52875000D03*
D16*
X68550000Y-77600000D03*
X66650000Y-77600000D03*
D11*
X136750000Y-92412500D03*
X136750000Y-90587500D03*
X129500000Y-92412500D03*
X129500000Y-90587500D03*
D14*
X83860000Y-49337500D03*
X83860000Y-47462500D03*
D11*
X142000000Y-92412500D03*
X142000000Y-90587500D03*
D21*
X90137500Y-60150000D03*
X90137500Y-59200000D03*
X90137500Y-58250000D03*
X87862500Y-58250000D03*
X87862500Y-59200000D03*
X87862500Y-60150000D03*
D12*
X115100000Y-97387500D03*
X115100000Y-99212500D03*
D15*
X142725000Y-53100000D03*
X140900000Y-53100000D03*
D14*
X89000000Y-49337500D03*
X89000000Y-47462500D03*
M02*
