M48
; DRILL file {KiCad 9.0.5} date 2025-10-21T08:36:22+0800
; FORMAT={-:-/ absolute / metric / decimal}
; #@! TF.CreationDate,2025-10-21T08:36:22+08:00
; #@! TF.GenerationSoftware,Kicad,Pcbnew,9.0.5
; #@! TF.FileFunction,Plated,1,2,PTH
FMAT,2
METRIC
; #@! TA.AperFunction,Plated,PTH,ViaDrill
T1C0.200
; #@! TA.AperFunction,Plated,PTH,ViaDrill
T2C0.300
; #@! TA.AperFunction,Plated,PTH,ViaDrill
T3C0.500
; #@! TA.AperFunction,Plated,PTH,ViaDrill
T4C0.600
; #@! TA.AperFunction,Plated,PTH,ComponentDrill
T5C0.890
; #@! TA.AperFunction,Plated,PTH,ComponentDrill
T6C1.000
; #@! TA.AperFunction,Plated,PTH,ComponentDrill
T7C1.020
; #@! TA.AperFunction,Plated,PTH,ComponentDrill
T8C1.090
; #@! TA.AperFunction,Plated,PTH,ComponentDrill
T9C1.630
; #@! TA.AperFunction,Plated,PTH,ComponentDrill
T10C3.200
%
G90
G05
T1
X79.9Y-73.1
X79.9Y-74.0
X79.9Y-74.8
X80.75Y-73.1
X80.75Y-74.0
X80.75Y-74.8
X81.6Y-73.1
X81.6Y-74.0
X81.6Y-74.8
T2
X46.0Y-86.85
X46.0Y-99.25
X47.725Y-62.6
X52.2Y-82.4
X53.0Y-104.1
X53.2Y-86.0
X53.5Y-77.75
X54.0Y-93.2
X57.8Y-98.8
X60.75Y-86.75
X61.9Y-84.8
X62.0Y-71.5
X62.0Y-75.2
X62.0Y-79.8
X62.0Y-83.0
X63.865Y-65.0
X64.9Y-90.82
X65.2Y-69.6
X65.4Y-73.4
X65.4Y-77.2
X66.9Y-51.33
X67.6Y-107.0
X68.25Y-91.4
X68.25Y-96.1
X69.6Y-82.0
X69.75Y-70.5
X69.8Y-68.4
X69.8Y-77.6
X70.1Y-74.324
X70.53Y-72.4
X71.0Y-82.2
X72.4Y-87.737
X73.462Y-71.25
X74.4Y-80.6
X75.2Y-69.6
X77.5Y-72.75
X77.584Y-51.416
X77.6Y-68.0
X79.025Y-77.5
X79.9Y-77.1
X80.4Y-48.6
X80.8Y-61.2
X82.4Y-63.2
X82.75Y-77.15
X82.8Y-85.2
X83.0Y-64.4
X84.1Y-74.15
X85.9Y-69.901
X86.5Y-66.5
X87.1Y-68.9
X87.2Y-65.4
X87.4Y-79.4
X87.6Y-54.9
X87.7Y-69.566
X90.8Y-75.9
X90.8Y-61.2
X91.023Y-70.6
X91.255Y-75.242
X91.731Y-74.599
X93.506Y-77.767
X93.949Y-77.101
X94.107Y-79.507
X94.149Y-72.8
X94.626Y-76.674
X95.8Y-70.4
X98.3Y-90.1
X98.4Y-85.3
X98.7Y-51.7
X99.25Y-74.8
X100.5Y-70.2
X100.5Y-71.099
X101.25Y-63.2
X102.0Y-70.2
X102.0Y-71.0
X102.8Y-63.037
X103.0Y-69.2
X103.75Y-76.625
X104.0Y-86.0
X104.2Y-61.0
X104.25Y-74.0
X104.25Y-76.0
X104.6Y-84.5
X105.2Y-63.037
X105.4Y-70.7
X106.387Y-69.135
X106.9Y-69.749
X108.649Y-76.75
X109.35Y-62.85
X109.5Y-76.0
X109.5Y-90.424
X109.8Y-58.4
X110.0Y-64.25
X110.0Y-89.8
X110.5Y-74.25
X110.5Y-84.25
X110.905Y-64.496
X111.4Y-84.95
X111.85Y-100.75
X111.9Y-74.05
X111.9Y-83.5
X112.5Y-81.5
X113.25Y-83.5
X114.0Y-68.1
X114.0Y-80.0
X114.2Y-74.2
X114.306Y-69.429
X114.5Y-76.5
X114.775Y-79.4
X114.8Y-68.8
X115.2Y-89.2
X115.5Y-67.5
X117.25Y-105.25
X117.462Y-77.306
X117.6Y-73.3
X118.145Y-75.696
X118.497Y-74.971
X119.6Y-89.8
X120.25Y-80.3
X121.1Y-90.4
X121.6Y-62.8
X121.8Y-52.4
X122.5Y-62.5
X122.5Y-78.75
X122.549Y-77.799
X123.101Y-63.045
X123.182Y-69.1
X123.401Y-65.198
X123.612Y-70.7
X123.701Y-63.8
X123.85Y-69.75
X123.9Y-84.449
X123.9Y-92.4
X124.476Y-83.824
X124.541Y-78.791
X125.0Y-104.75
X126.3Y-82.1
X126.5Y-83.0
X126.5Y-95.25
X126.926Y-78.726
X127.7Y-84.5
X128.2Y-82.2
X128.236Y-77.44
X129.366Y-71.116
X129.501Y-66.4
X130.0Y-65.25
X130.394Y-88.106
X130.5Y-70.25
X131.0Y-86.25
X131.121Y-87.077
X131.5Y-96.75
X131.75Y-88.7
X132.75Y-86.25
X133.75Y-84.25
X135.5Y-89.31
X136.83Y-88.66
X139.5Y-88.7
X140.1Y-83.275
X140.5Y-89.35
X141.375Y-73.725
X142.5Y-62.25
X142.7Y-59.4
X144.0Y-46.1
X144.0Y-48.3
X144.0Y-50.7
X144.0Y-53.1
X144.0Y-55.5
T3
X40.731Y-84.5
X58.5Y-90.0
X60.7Y-52.4
X61.5Y-95.5
X64.635Y-96.0
X64.75Y-51.75
X66.25Y-47.75
X68.295Y-60.9
X68.5Y-110.359
X75.15Y-95.65
X77.0Y-33.761
X79.2Y-47.0
X82.287Y-94.44
X85.237Y-90.115
X85.75Y-54.75
X87.975Y-52.25
X101.5Y-33.761
X101.5Y-49.7
X107.8Y-55.8
X109.25Y-98.75
X109.3Y-100.6
X109.3Y-110.131
X109.5Y-52.75
X111.6Y-95.519
X120.6Y-54.5
X120.75Y-58.0
X123.25Y-110.25
X124.25Y-100.0
X130.6Y-56.85
X132.6Y-52.8
X134.08Y-46.749
T4
X130.5Y-99.8
X134.0Y-98.25
X134.14Y-33.77
T5
X56.85Y-67.98
X56.85Y-70.52
X56.85Y-73.06
X56.85Y-75.6
X59.39Y-69.24
X59.39Y-71.78
X59.39Y-74.32
X59.39Y-76.86
T6
X52.69Y-38.25
X52.69Y-40.79
X55.23Y-38.25
X55.23Y-40.79
X57.77Y-38.25
X57.77Y-40.79
X60.31Y-38.25
X60.31Y-40.79
X66.94Y-38.25
X66.94Y-40.79
X69.48Y-38.25
X69.48Y-40.79
X70.19Y-103.6
X70.19Y-106.14
X72.02Y-38.25
X72.02Y-40.79
X72.73Y-103.6
X72.73Y-106.14
X74.56Y-38.25
X74.56Y-40.79
X75.27Y-103.6
X75.27Y-106.14
X77.81Y-103.6
X77.81Y-106.14
X80.35Y-103.6
X80.35Y-106.14
X81.36Y-38.26
X81.36Y-40.8
X82.89Y-103.6
X82.89Y-106.14
X83.9Y-38.26
X83.9Y-40.8
X85.43Y-103.6
X85.43Y-106.14
X86.44Y-38.26
X86.44Y-40.8
X87.97Y-103.6
X87.97Y-106.14
X88.98Y-38.26
X88.98Y-40.8
X90.51Y-103.6
X90.51Y-106.14
X91.52Y-38.26
X91.52Y-40.8
X93.05Y-103.6
X93.05Y-106.14
X94.06Y-38.26
X94.06Y-40.8
X95.59Y-103.6
X95.59Y-106.14
X96.6Y-38.26
X96.6Y-40.8
X98.13Y-103.6
X98.13Y-106.14
X99.14Y-38.26
X99.14Y-40.8
X100.67Y-103.6
X100.67Y-106.14
X103.21Y-103.6
X103.21Y-106.14
X107.63Y-38.25
X107.63Y-40.79
X110.17Y-38.25
X110.17Y-40.79
X112.71Y-38.25
X112.71Y-40.79
X115.25Y-38.25
X115.25Y-40.79
X117.79Y-38.25
X117.79Y-40.79
X120.33Y-38.25
X120.33Y-40.79
X122.87Y-38.25
X122.87Y-40.79
X125.41Y-38.25
X125.41Y-40.79
X127.95Y-38.25
X127.95Y-40.79
X147.76Y-84.215
X147.76Y-86.985
X147.76Y-89.755
X147.76Y-92.525
X147.76Y-95.295
X150.6Y-85.6
X150.6Y-88.37
X150.6Y-91.14
X150.6Y-93.91
X152.4Y-44.24
X152.4Y-46.78
X152.4Y-49.32
X152.4Y-51.86
X152.4Y-54.4
X152.4Y-56.94
X152.4Y-59.48
X152.4Y-62.02
X152.4Y-64.56
X152.4Y-67.1
X154.94Y-44.24
X154.94Y-46.78
X154.94Y-49.32
X154.94Y-51.86
X154.94Y-54.4
X154.94Y-56.94
X154.94Y-59.48
X154.94Y-62.02
X154.94Y-64.56
X154.94Y-67.1
T7
X45.59Y-65.795
X45.59Y-68.335
X45.59Y-76.505
X45.59Y-79.045
T8
X131.575Y-61.625
X134.825Y-59.175
T9
X53.54Y-64.675
X53.54Y-80.165
T10
X149.18Y-77.255
X149.18Y-102.255
T6
G00X47.0Y-50.65
M15
G01X47.0Y-52.85
M16
G05
G00X51.5Y-56.55
M15
G01X49.3Y-56.55
M16
G05
G00X53.3Y-50.45
M15
G01X53.3Y-53.05
M16
G05
M30
