G04 #@! TF.GenerationSoftware,KiCad,Pcbnew,9.0.5*
G04 #@! TF.CreationDate,2025-10-21T08:36:28+08:00*
G04 #@! TF.ProjectId,sac_board,7361635f-626f-4617-9264-2e6b69636164,rev?*
G04 #@! TF.SameCoordinates,Original*
G04 #@! TF.FileFunction,Paste,Bot*
G04 #@! TF.FilePolarity,Positive*
%FSLAX46Y46*%
G04 Gerber Fmt 4.6, Leading zero omitted, Abs format (unit mm)*
G04 Created by KiCad (PCBNEW 9.0.5) date 2025-10-21 08:36:28*
%MOMM*%
%LPD*%
G01*
G04 APERTURE LIST*
G04 Aperture macros list*
%AMRoundRect*
0 Rectangle with rounded corners*
0 $1 Rounding radius*
0 $2 $3 $4 $5 $6 $7 $8 $9 X,Y pos of 4 corners*
0 Add a 4 corners polygon primitive as box body*
4,1,4,$2,$3,$4,$5,$6,$7,$8,$9,$2,$3,0*
0 Add four circle primitives for the rounded corners*
1,1,$1+$1,$2,$3*
1,1,$1+$1,$4,$5*
1,1,$1+$1,$6,$7*
1,1,$1+$1,$8,$9*
0 Add four rect primitives between the rounded corners*
20,1,$1+$1,$2,$3,$4,$5,0*
20,1,$1+$1,$4,$5,$6,$7,0*
20,1,$1+$1,$6,$7,$8,$9,0*
20,1,$1+$1,$8,$9,$2,$3,0*%
G04 Aperture macros list end*
%ADD10RoundRect,0.250000X-0.475000X0.250000X-0.475000X-0.250000X0.475000X-0.250000X0.475000X0.250000X0*%
%ADD11RoundRect,0.150000X0.512500X0.150000X-0.512500X0.150000X-0.512500X-0.150000X0.512500X-0.150000X0*%
%ADD12RoundRect,0.250000X-0.250000X-0.475000X0.250000X-0.475000X0.250000X0.475000X-0.250000X0.475000X0*%
%ADD13RoundRect,0.250000X0.250000X0.475000X-0.250000X0.475000X-0.250000X-0.475000X0.250000X-0.475000X0*%
%ADD14RoundRect,0.250000X0.262500X0.450000X-0.262500X0.450000X-0.262500X-0.450000X0.262500X-0.450000X0*%
%ADD15RoundRect,0.250000X-1.500000X0.925000X-1.500000X-0.925000X1.500000X-0.925000X1.500000X0.925000X0*%
%ADD16RoundRect,0.250000X-0.450000X0.262500X-0.450000X-0.262500X0.450000X-0.262500X0.450000X0.262500X0*%
%ADD17RoundRect,0.150000X0.150000X-0.512500X0.150000X0.512500X-0.150000X0.512500X-0.150000X-0.512500X0*%
%ADD18RoundRect,0.250000X-0.925000X-1.500000X0.925000X-1.500000X0.925000X1.500000X-0.925000X1.500000X0*%
%ADD19RoundRect,0.250000X0.450000X-0.262500X0.450000X0.262500X-0.450000X0.262500X-0.450000X-0.262500X0*%
G04 APERTURE END LIST*
D10*
X74100000Y-54150000D03*
X74100000Y-56050000D03*
X126300000Y-59350000D03*
X126300000Y-61250000D03*
D11*
X62887500Y-48800000D03*
X62887500Y-49750000D03*
X62887500Y-50700000D03*
X60612500Y-50700000D03*
X60612500Y-49750000D03*
X60612500Y-48800000D03*
D12*
X113650000Y-92100000D03*
X115550000Y-92100000D03*
D13*
X124350000Y-59600000D03*
X122450000Y-59600000D03*
D10*
X76800000Y-97000000D03*
X76800000Y-98900000D03*
X107700000Y-102450000D03*
X107700000Y-104350000D03*
D14*
X89412500Y-87400000D03*
X87587500Y-87400000D03*
D15*
X61750000Y-99725000D03*
X61750000Y-105775000D03*
D16*
X79887500Y-52837500D03*
X79887500Y-54662500D03*
D12*
X104300000Y-51225000D03*
X106200000Y-51225000D03*
D17*
X62450000Y-94137500D03*
X61500000Y-94137500D03*
X60550000Y-94137500D03*
X60550000Y-91862500D03*
X61500000Y-91862500D03*
X62450000Y-91862500D03*
D14*
X63062500Y-44150000D03*
X61237500Y-44150000D03*
D10*
X111900000Y-102450000D03*
X111900000Y-104350000D03*
X91100000Y-58850000D03*
X91100000Y-60750000D03*
X95500000Y-58850000D03*
X95500000Y-60750000D03*
D13*
X56950000Y-103320944D03*
X55050000Y-103320944D03*
D10*
X69700000Y-54150000D03*
X69700000Y-56050000D03*
D12*
X135300000Y-90900000D03*
X137200000Y-90900000D03*
D10*
X109800000Y-102450000D03*
X109800000Y-104350000D03*
X92850000Y-96900000D03*
X92850000Y-98800000D03*
X136900000Y-58950000D03*
X136900000Y-60850000D03*
X78950000Y-97000000D03*
X78950000Y-98900000D03*
D12*
X61150000Y-46500000D03*
X63050000Y-46500000D03*
D10*
X81200000Y-58250000D03*
X81200000Y-60150000D03*
D14*
X106112500Y-49000000D03*
X104287500Y-49000000D03*
D18*
X68725000Y-49250000D03*
X74775000Y-49250000D03*
D10*
X101000000Y-58450000D03*
X101000000Y-60350000D03*
D12*
X134450000Y-49200000D03*
X136350000Y-49200000D03*
D11*
X106387500Y-53275000D03*
X106387500Y-54225000D03*
X106387500Y-55175000D03*
X104112500Y-55175000D03*
X104112500Y-54225000D03*
X104112500Y-53275000D03*
D18*
X134475000Y-54200000D03*
X140525000Y-54200000D03*
D16*
X76137500Y-92267500D03*
X76137500Y-94092500D03*
D14*
X81312500Y-87450000D03*
X79487500Y-87450000D03*
D12*
X127360000Y-93960000D03*
X129260000Y-93960000D03*
D14*
X140312500Y-49200000D03*
X138487500Y-49200000D03*
X106912500Y-91900000D03*
X105087500Y-91900000D03*
D10*
X103200000Y-58450000D03*
X103200000Y-60350000D03*
D13*
X57150000Y-94500000D03*
X55250000Y-94500000D03*
D14*
X84312500Y-48500000D03*
X82487500Y-48500000D03*
D11*
X84387500Y-52800000D03*
X84387500Y-53750000D03*
X84387500Y-54700000D03*
X82112500Y-54700000D03*
X82112500Y-53750000D03*
X82112500Y-52800000D03*
D10*
X115400000Y-58850000D03*
X115400000Y-60750000D03*
D12*
X115800000Y-49225000D03*
X117700000Y-49225000D03*
D10*
X83400000Y-58250000D03*
X83400000Y-60150000D03*
D16*
X124750000Y-96587500D03*
X124750000Y-98412500D03*
D13*
X56950000Y-101100000D03*
X55050000Y-101100000D03*
D12*
X94050000Y-49250000D03*
X95950000Y-49250000D03*
X105050000Y-94075000D03*
X106950000Y-94075000D03*
D14*
X113662500Y-49225000D03*
X111837500Y-49225000D03*
D10*
X81100000Y-97000000D03*
X81100000Y-98900000D03*
X137250000Y-100550000D03*
X137250000Y-102450000D03*
X93300000Y-58850000D03*
X93300000Y-60750000D03*
X127900000Y-101550000D03*
X127900000Y-103450000D03*
X90700000Y-96900000D03*
X90700000Y-98800000D03*
D18*
X87325000Y-92350000D03*
X93375000Y-92350000D03*
D14*
X140912500Y-90900000D03*
X139087500Y-90900000D03*
D10*
X79000000Y-58250000D03*
X79000000Y-60150000D03*
X113200000Y-58850000D03*
X113200000Y-60750000D03*
D11*
X80975000Y-92050000D03*
X80975000Y-93000000D03*
X80975000Y-93950000D03*
X78700000Y-93950000D03*
X78700000Y-93000000D03*
X78700000Y-92050000D03*
D16*
X58800000Y-44887500D03*
X58800000Y-46712500D03*
D10*
X71900000Y-54150000D03*
X71900000Y-56050000D03*
D18*
X89975000Y-54250000D03*
X96025000Y-54250000D03*
D11*
X129137500Y-96550000D03*
X129137500Y-97500000D03*
X129137500Y-98450000D03*
X126862500Y-98450000D03*
X126862500Y-97500000D03*
X126862500Y-96550000D03*
D16*
X101750000Y-53312500D03*
X101750000Y-55137500D03*
X102200000Y-96487500D03*
X102200000Y-98312500D03*
D10*
X141550000Y-100550000D03*
X141550000Y-102450000D03*
D18*
X111725000Y-54225000D03*
X117775000Y-54225000D03*
D10*
X139100000Y-58950000D03*
X139100000Y-60850000D03*
X66750000Y-99845000D03*
X66750000Y-101745000D03*
X60200000Y-54250000D03*
X60200000Y-56150000D03*
D11*
X129137500Y-54325000D03*
X129137500Y-55275000D03*
X129137500Y-56225000D03*
X126862500Y-56225000D03*
X126862500Y-55275000D03*
X126862500Y-54325000D03*
D18*
X113575000Y-97075000D03*
X119625000Y-97075000D03*
D10*
X64600000Y-54250000D03*
X64600000Y-56150000D03*
X125750000Y-101550000D03*
X125750000Y-103450000D03*
X139400000Y-100550000D03*
X139400000Y-102450000D03*
X141300000Y-58950000D03*
X141300000Y-60850000D03*
D12*
X82437500Y-50750000D03*
X84337500Y-50750000D03*
D10*
X130000000Y-101550000D03*
X130000000Y-103450000D03*
D11*
X106737500Y-96525000D03*
X106737500Y-97475000D03*
X106737500Y-98425000D03*
X104462500Y-98425000D03*
X104462500Y-97475000D03*
X104462500Y-96525000D03*
D14*
X129162500Y-91750000D03*
X127337500Y-91750000D03*
D19*
X66750000Y-105837500D03*
X66750000Y-104012500D03*
D10*
X128500000Y-59350000D03*
X128500000Y-61250000D03*
X117600000Y-101750000D03*
X117600000Y-103650000D03*
D12*
X79447500Y-89640000D03*
X81347500Y-89640000D03*
D14*
X128912500Y-49800000D03*
X127087500Y-49800000D03*
D13*
X57150000Y-92350000D03*
X55250000Y-92350000D03*
D16*
X124500000Y-54302500D03*
X124500000Y-56127500D03*
D12*
X91350000Y-87400000D03*
X93250000Y-87400000D03*
D10*
X115400000Y-101725000D03*
X115400000Y-103625000D03*
X64635000Y-92800000D03*
X64635000Y-94700000D03*
D14*
X91912500Y-49250000D03*
X90087500Y-49250000D03*
D10*
X105500000Y-58450000D03*
X105500000Y-60350000D03*
D13*
X57150000Y-90200000D03*
X55250000Y-90200000D03*
D10*
X88500000Y-96900000D03*
X88500000Y-98800000D03*
D13*
X56950000Y-105600000D03*
X55050000Y-105600000D03*
D10*
X117600000Y-58850000D03*
X117600000Y-60750000D03*
D19*
X66800000Y-94662500D03*
X66800000Y-92837500D03*
D14*
X119512500Y-92100000D03*
X117687500Y-92100000D03*
D18*
X135075000Y-95800000D03*
X141125000Y-95800000D03*
D10*
X62400000Y-54250000D03*
X62400000Y-56150000D03*
X119800000Y-101750000D03*
X119800000Y-103650000D03*
D14*
X70612500Y-44200000D03*
X68787500Y-44200000D03*
D12*
X127050000Y-52025000D03*
X128950000Y-52025000D03*
D14*
X62412500Y-89500000D03*
X60587500Y-89500000D03*
D12*
X72500000Y-44250000D03*
X74400000Y-44250000D03*
M02*
