G04 #@! TF.GenerationSoftware,KiCad,Pcbnew,9.0.5*
G04 #@! TF.CreationDate,2025-10-21T08:36:28+08:00*
G04 #@! TF.ProjectId,sac_board,7361635f-626f-4617-9264-2e6b69636164,rev?*
G04 #@! TF.SameCoordinates,Original*
G04 #@! TF.FileFunction,Soldermask,Bot*
G04 #@! TF.FilePolarity,Negative*
%FSLAX46Y46*%
G04 Gerber Fmt 4.6, Leading zero omitted, Abs format (unit mm)*
G04 Created by KiCad (PCBNEW 9.0.5) date 2025-10-21 08:36:28*
%MOMM*%
%LPD*%
G01*
G04 APERTURE LIST*
G04 Aperture macros list*
%AMRoundRect*
0 Rectangle with rounded corners*
0 $1 Rounding radius*
0 $2 $3 $4 $5 $6 $7 $8 $9 X,Y pos of 4 corners*
0 Add a 4 corners polygon primitive as box body*
4,1,4,$2,$3,$4,$5,$6,$7,$8,$9,$2,$3,0*
0 Add four circle primitives for the rounded corners*
1,1,$1+$1,$2,$3*
1,1,$1+$1,$4,$5*
1,1,$1+$1,$6,$7*
1,1,$1+$1,$8,$9*
0 Add four rect primitives between the rounded corners*
20,1,$1+$1,$2,$3,$4,$5,0*
20,1,$1+$1,$4,$5,$6,$7,0*
20,1,$1+$1,$6,$7,$8,$9,0*
20,1,$1+$1,$8,$9,$2,$3,0*%
G04 Aperture macros list end*
%ADD10R,1.700000X1.700000*%
%ADD11C,1.700000*%
%ADD12C,2.500000*%
%ADD13R,1.600000X1.600000*%
%ADD14C,1.600000*%
%ADD15RoundRect,0.250000X-0.600000X-0.600000X0.600000X-0.600000X0.600000X0.600000X-0.600000X0.600000X0*%
%ADD16C,0.900000*%
%ADD17C,4.000000*%
%ADD18R,2.000000X4.600000*%
%ADD19O,2.000000X4.200000*%
%ADD20O,4.200000X2.000000*%
%ADD21C,3.250000*%
%ADD22RoundRect,0.250500X-0.499500X0.499500X-0.499500X-0.499500X0.499500X-0.499500X0.499500X0.499500X0*%
%ADD23C,1.500000*%
%ADD24RoundRect,0.250000X-0.475000X0.250000X-0.475000X-0.250000X0.475000X-0.250000X0.475000X0.250000X0*%
%ADD25RoundRect,0.150000X0.512500X0.150000X-0.512500X0.150000X-0.512500X-0.150000X0.512500X-0.150000X0*%
%ADD26RoundRect,0.250000X-0.250000X-0.475000X0.250000X-0.475000X0.250000X0.475000X-0.250000X0.475000X0*%
%ADD27RoundRect,0.250000X0.250000X0.475000X-0.250000X0.475000X-0.250000X-0.475000X0.250000X-0.475000X0*%
%ADD28RoundRect,0.250000X0.262500X0.450000X-0.262500X0.450000X-0.262500X-0.450000X0.262500X-0.450000X0*%
%ADD29RoundRect,0.250000X-1.500000X0.925000X-1.500000X-0.925000X1.500000X-0.925000X1.500000X0.925000X0*%
%ADD30RoundRect,0.250000X-0.450000X0.262500X-0.450000X-0.262500X0.450000X-0.262500X0.450000X0.262500X0*%
%ADD31RoundRect,0.150000X0.150000X-0.512500X0.150000X0.512500X-0.150000X0.512500X-0.150000X-0.512500X0*%
%ADD32RoundRect,0.250000X-0.925000X-1.500000X0.925000X-1.500000X0.925000X1.500000X-0.925000X1.500000X0*%
%ADD33RoundRect,0.250000X0.450000X-0.262500X0.450000X0.262500X-0.450000X0.262500X-0.450000X-0.262500X0*%
G04 APERTURE END LIST*
D10*
X103210000Y-103600000D03*
D11*
X103210000Y-106140000D03*
X100670000Y-103600000D03*
X100670000Y-106140000D03*
X98130000Y-103600000D03*
X98130000Y-106140000D03*
X95590000Y-103600000D03*
X95590000Y-106140000D03*
X93050000Y-103600000D03*
X93050000Y-106140000D03*
X90510000Y-103600000D03*
X90510000Y-106140000D03*
X87970000Y-103600000D03*
X87970000Y-106140000D03*
X85430000Y-103600000D03*
X85430000Y-106140000D03*
X82890000Y-103600000D03*
X82890000Y-106140000D03*
X80350000Y-103600000D03*
X80350000Y-106140000D03*
X77810000Y-103600000D03*
X77810000Y-106140000D03*
X75270000Y-103600000D03*
X75270000Y-106140000D03*
X72730000Y-103600000D03*
X72730000Y-106140000D03*
X70190000Y-103600000D03*
X70190000Y-106140000D03*
D12*
X42600000Y-35400000D03*
D10*
X127950000Y-38250000D03*
D11*
X127950000Y-40790000D03*
X125410000Y-38250000D03*
X125410000Y-40790000D03*
X122870000Y-38250000D03*
X122870000Y-40790000D03*
X120330000Y-38250000D03*
X120330000Y-40790000D03*
X117790000Y-38250000D03*
X117790000Y-40790000D03*
X115250000Y-38250000D03*
X115250000Y-40790000D03*
X112710000Y-38250000D03*
X112710000Y-40790000D03*
X110170000Y-38250000D03*
X110170000Y-40790000D03*
X107630000Y-38250000D03*
X107630000Y-40790000D03*
D10*
X74560000Y-38250000D03*
D11*
X74560000Y-40790000D03*
X72020000Y-38250000D03*
X72020000Y-40790000D03*
X69480000Y-38250000D03*
X69480000Y-40790000D03*
X66940000Y-38250000D03*
X66940000Y-40790000D03*
D13*
X131575000Y-61625000D03*
D14*
X134825000Y-59175000D03*
D15*
X152400000Y-44240000D03*
D11*
X154940000Y-44240000D03*
X152400000Y-46780000D03*
X154940000Y-46780000D03*
X152400000Y-49320000D03*
X154940000Y-49320000D03*
X152400000Y-51860000D03*
X154940000Y-51860000D03*
X152400000Y-54400000D03*
X154940000Y-54400000D03*
X152400000Y-56940000D03*
X154940000Y-56940000D03*
X152400000Y-59480000D03*
X154940000Y-59480000D03*
X152400000Y-62020000D03*
X154940000Y-62020000D03*
X152400000Y-64560000D03*
X154940000Y-64560000D03*
X152400000Y-67100000D03*
X154940000Y-67100000D03*
D16*
X114050000Y-105725000D03*
X118450000Y-105725000D03*
D17*
X149180000Y-102255000D03*
X149180000Y-77255000D03*
D13*
X147760000Y-84215000D03*
D14*
X147760000Y-86985000D03*
X147760000Y-89755000D03*
X147760000Y-92525000D03*
X147760000Y-95295000D03*
X150600000Y-85600000D03*
X150600000Y-88370000D03*
X150600000Y-91140000D03*
X150600000Y-93910000D03*
D18*
X53300000Y-51750000D03*
D19*
X47000000Y-51750000D03*
D20*
X50400000Y-56550000D03*
D10*
X99140000Y-38260000D03*
D11*
X99140000Y-40800000D03*
X96600000Y-38260000D03*
X96600000Y-40800000D03*
X94060000Y-38260000D03*
X94060000Y-40800000D03*
X91520000Y-38260000D03*
X91520000Y-40800000D03*
X88980000Y-38260000D03*
X88980000Y-40800000D03*
X86440000Y-38260000D03*
X86440000Y-40800000D03*
X83900000Y-38260000D03*
X83900000Y-40800000D03*
X81360000Y-38260000D03*
X81360000Y-40800000D03*
D12*
X155400000Y-108700000D03*
X155400000Y-35400000D03*
X42600000Y-108700000D03*
D10*
X60310000Y-38250000D03*
D11*
X60310000Y-40790000D03*
X57770000Y-38250000D03*
X57770000Y-40790000D03*
X55230000Y-38250000D03*
X55230000Y-40790000D03*
X52690000Y-38250000D03*
X52690000Y-40790000D03*
D21*
X50490000Y-66705000D03*
X50490000Y-78135000D03*
D22*
X56850000Y-67980000D03*
D23*
X59390000Y-69240000D03*
X56850000Y-70520000D03*
X59390000Y-71780000D03*
X56850000Y-73060000D03*
X59390000Y-74320000D03*
X56850000Y-75600000D03*
X59390000Y-76860000D03*
X45590000Y-65795000D03*
X45590000Y-68335000D03*
X45590000Y-76505000D03*
X45590000Y-79045000D03*
D12*
X53540000Y-64675000D03*
X53540000Y-80165000D03*
D24*
X74100000Y-54150000D03*
X74100000Y-56050000D03*
X126300000Y-59350000D03*
X126300000Y-61250000D03*
D25*
X62887500Y-48800000D03*
X62887500Y-49750000D03*
X62887500Y-50700000D03*
X60612500Y-50700000D03*
X60612500Y-49750000D03*
X60612500Y-48800000D03*
D26*
X113650000Y-92100000D03*
X115550000Y-92100000D03*
D27*
X124350000Y-59600000D03*
X122450000Y-59600000D03*
D24*
X76800000Y-97000000D03*
X76800000Y-98900000D03*
X107700000Y-102450000D03*
X107700000Y-104350000D03*
D28*
X89412500Y-87400000D03*
X87587500Y-87400000D03*
D29*
X61750000Y-99725000D03*
X61750000Y-105775000D03*
D30*
X79887500Y-52837500D03*
X79887500Y-54662500D03*
D26*
X104300000Y-51225000D03*
X106200000Y-51225000D03*
D31*
X62450000Y-94137500D03*
X61500000Y-94137500D03*
X60550000Y-94137500D03*
X60550000Y-91862500D03*
X61500000Y-91862500D03*
X62450000Y-91862500D03*
D28*
X63062500Y-44150000D03*
X61237500Y-44150000D03*
D24*
X111900000Y-102450000D03*
X111900000Y-104350000D03*
X91100000Y-58850000D03*
X91100000Y-60750000D03*
X95500000Y-58850000D03*
X95500000Y-60750000D03*
D27*
X56950000Y-103320944D03*
X55050000Y-103320944D03*
D24*
X69700000Y-54150000D03*
X69700000Y-56050000D03*
D26*
X135300000Y-90900000D03*
X137200000Y-90900000D03*
D24*
X109800000Y-102450000D03*
X109800000Y-104350000D03*
X92850000Y-96900000D03*
X92850000Y-98800000D03*
X136900000Y-58950000D03*
X136900000Y-60850000D03*
X78950000Y-97000000D03*
X78950000Y-98900000D03*
D26*
X61150000Y-46500000D03*
X63050000Y-46500000D03*
D24*
X81200000Y-58250000D03*
X81200000Y-60150000D03*
D28*
X106112500Y-49000000D03*
X104287500Y-49000000D03*
D32*
X68725000Y-49250000D03*
X74775000Y-49250000D03*
D24*
X101000000Y-58450000D03*
X101000000Y-60350000D03*
D26*
X134450000Y-49200000D03*
X136350000Y-49200000D03*
D25*
X106387500Y-53275000D03*
X106387500Y-54225000D03*
X106387500Y-55175000D03*
X104112500Y-55175000D03*
X104112500Y-54225000D03*
X104112500Y-53275000D03*
D32*
X134475000Y-54200000D03*
X140525000Y-54200000D03*
D30*
X76137500Y-92267500D03*
X76137500Y-94092500D03*
D28*
X81312500Y-87450000D03*
X79487500Y-87450000D03*
D26*
X127360000Y-93960000D03*
X129260000Y-93960000D03*
D28*
X140312500Y-49200000D03*
X138487500Y-49200000D03*
X106912500Y-91900000D03*
X105087500Y-91900000D03*
D24*
X103200000Y-58450000D03*
X103200000Y-60350000D03*
D27*
X57150000Y-94500000D03*
X55250000Y-94500000D03*
D28*
X84312500Y-48500000D03*
X82487500Y-48500000D03*
D25*
X84387500Y-52800000D03*
X84387500Y-53750000D03*
X84387500Y-54700000D03*
X82112500Y-54700000D03*
X82112500Y-53750000D03*
X82112500Y-52800000D03*
D24*
X115400000Y-58850000D03*
X115400000Y-60750000D03*
D26*
X115800000Y-49225000D03*
X117700000Y-49225000D03*
D24*
X83400000Y-58250000D03*
X83400000Y-60150000D03*
D30*
X124750000Y-96587500D03*
X124750000Y-98412500D03*
D27*
X56950000Y-101100000D03*
X55050000Y-101100000D03*
D26*
X94050000Y-49250000D03*
X95950000Y-49250000D03*
X105050000Y-94075000D03*
X106950000Y-94075000D03*
D28*
X113662500Y-49225000D03*
X111837500Y-49225000D03*
D24*
X81100000Y-97000000D03*
X81100000Y-98900000D03*
X137250000Y-100550000D03*
X137250000Y-102450000D03*
X93300000Y-58850000D03*
X93300000Y-60750000D03*
X127900000Y-101550000D03*
X127900000Y-103450000D03*
X90700000Y-96900000D03*
X90700000Y-98800000D03*
D32*
X87325000Y-92350000D03*
X93375000Y-92350000D03*
D28*
X140912500Y-90900000D03*
X139087500Y-90900000D03*
D24*
X79000000Y-58250000D03*
X79000000Y-60150000D03*
X113200000Y-58850000D03*
X113200000Y-60750000D03*
D25*
X80975000Y-92050000D03*
X80975000Y-93000000D03*
X80975000Y-93950000D03*
X78700000Y-93950000D03*
X78700000Y-93000000D03*
X78700000Y-92050000D03*
D30*
X58800000Y-44887500D03*
X58800000Y-46712500D03*
D24*
X71900000Y-54150000D03*
X71900000Y-56050000D03*
D32*
X89975000Y-54250000D03*
X96025000Y-54250000D03*
D25*
X129137500Y-96550000D03*
X129137500Y-97500000D03*
X129137500Y-98450000D03*
X126862500Y-98450000D03*
X126862500Y-97500000D03*
X126862500Y-96550000D03*
D30*
X101750000Y-53312500D03*
X101750000Y-55137500D03*
X102200000Y-96487500D03*
X102200000Y-98312500D03*
D24*
X141550000Y-100550000D03*
X141550000Y-102450000D03*
D32*
X111725000Y-54225000D03*
X117775000Y-54225000D03*
D24*
X139100000Y-58950000D03*
X139100000Y-60850000D03*
X66750000Y-99845000D03*
X66750000Y-101745000D03*
X60200000Y-54250000D03*
X60200000Y-56150000D03*
D25*
X129137500Y-54325000D03*
X129137500Y-55275000D03*
X129137500Y-56225000D03*
X126862500Y-56225000D03*
X126862500Y-55275000D03*
X126862500Y-54325000D03*
D32*
X113575000Y-97075000D03*
X119625000Y-97075000D03*
D24*
X64600000Y-54250000D03*
X64600000Y-56150000D03*
X125750000Y-101550000D03*
X125750000Y-103450000D03*
X139400000Y-100550000D03*
X139400000Y-102450000D03*
X141300000Y-58950000D03*
X141300000Y-60850000D03*
D26*
X82437500Y-50750000D03*
X84337500Y-50750000D03*
D24*
X130000000Y-101550000D03*
X130000000Y-103450000D03*
D25*
X106737500Y-96525000D03*
X106737500Y-97475000D03*
X106737500Y-98425000D03*
X104462500Y-98425000D03*
X104462500Y-97475000D03*
X104462500Y-96525000D03*
D28*
X129162500Y-91750000D03*
X127337500Y-91750000D03*
D33*
X66750000Y-105837500D03*
X66750000Y-104012500D03*
D24*
X128500000Y-59350000D03*
X128500000Y-61250000D03*
X117600000Y-101750000D03*
X117600000Y-103650000D03*
D26*
X79447500Y-89640000D03*
X81347500Y-89640000D03*
D28*
X128912500Y-49800000D03*
X127087500Y-49800000D03*
D27*
X57150000Y-92350000D03*
X55250000Y-92350000D03*
D30*
X124500000Y-54302500D03*
X124500000Y-56127500D03*
D26*
X91350000Y-87400000D03*
X93250000Y-87400000D03*
D24*
X115400000Y-101725000D03*
X115400000Y-103625000D03*
X64635000Y-92800000D03*
X64635000Y-94700000D03*
D28*
X91912500Y-49250000D03*
X90087500Y-49250000D03*
D24*
X105500000Y-58450000D03*
X105500000Y-60350000D03*
D27*
X57150000Y-90200000D03*
X55250000Y-90200000D03*
D24*
X88500000Y-96900000D03*
X88500000Y-98800000D03*
D27*
X56950000Y-105600000D03*
X55050000Y-105600000D03*
D24*
X117600000Y-58850000D03*
X117600000Y-60750000D03*
D33*
X66800000Y-94662500D03*
X66800000Y-92837500D03*
D28*
X119512500Y-92100000D03*
X117687500Y-92100000D03*
D32*
X135075000Y-95800000D03*
X141125000Y-95800000D03*
D24*
X62400000Y-54250000D03*
X62400000Y-56150000D03*
X119800000Y-101750000D03*
X119800000Y-103650000D03*
D28*
X70612500Y-44200000D03*
X68787500Y-44200000D03*
D26*
X127050000Y-52025000D03*
X128950000Y-52025000D03*
D28*
X62412500Y-89500000D03*
X60587500Y-89500000D03*
D26*
X72500000Y-44250000D03*
X74400000Y-44250000D03*
M02*
